<svg width="65" height="59" viewBox="0 0 65 59" fill="none" xmlns="http://www.w3.org/2000/svg">
<rect x="0.5" y="0.5" width="64" height="58" rx="7.5" fill="#003DB5"/>
<rect x="0.5" y="0.5" width="64" height="58" rx="7.5" stroke="#545454"/>
<path d="M42.4286 37.7143H37.2857C36.6037 37.7143 35.9497 37.9852 35.4674 38.4674C34.9852 38.9497 34.7143 39.6037 34.7143 40.2857V42H36.4286V40.2857C36.4286 40.0584 36.5189 39.8404 36.6796 39.6796C36.8404 39.5189 37.0584 39.4286 37.2857 39.4286H42.4286C42.6559 39.4286 42.8739 39.5189 43.0347 39.6796C43.1954 39.8404 43.2857 40.0584 43.2857 40.2857V42H45V40.2857C45 39.6037 44.7291 38.9497 44.2468 38.4674C43.7646 37.9852 43.1106 37.7143 42.4286 37.7143ZM36.4286 33.4286C36.4286 34.1067 36.6297 34.7696 37.0064 35.3334C37.3831 35.8972 37.9186 36.3367 38.5451 36.5962C39.1716 36.8557 39.8609 36.9236 40.526 36.7913C41.1911 36.659 41.802 36.3324 42.2815 35.8529C42.761 35.3734 43.0875 34.7625 43.2198 34.0975C43.3521 33.4324 43.2842 32.743 43.0247 32.1165C42.7652 31.49 42.3258 30.9546 41.762 30.5778C41.1981 30.2011 40.5352 30 39.8571 30C38.9478 30 38.0758 30.3612 37.4328 31.0042C36.7898 31.6472 36.4286 32.5193 36.4286 33.4286ZM41.5714 33.4286C41.5714 33.7676 41.4709 34.0991 41.2825 34.381C41.0942 34.6629 40.8264 34.8826 40.5132 35.0124C40.1999 35.1421 39.8552 35.1761 39.5227 35.1099C39.1902 35.0438 38.8847 34.8805 38.645 34.6408C38.4052 34.401 38.2419 34.0956 38.1758 33.763C38.1096 33.4305 38.1436 33.0858 38.2733 32.7725C38.4031 32.4593 38.6228 32.1916 38.9047 32.0032C39.1866 31.8148 39.5181 31.7143 39.8571 31.7143C40.3118 31.7143 40.7478 31.8949 41.0693 32.2164C41.3908 32.5379 41.5714 32.9739 41.5714 33.4286ZM24.4286 34.2857V33.4286H22.7143V34.2857C22.7143 35.877 23.3464 37.4031 24.4716 38.5284C25.5969 39.6536 27.123 40.2857 28.7143 40.2857H31.2857V38.5714H28.7143C27.5776 38.5714 26.4876 38.1199 25.6838 37.3162C24.8801 36.5124 24.4286 35.4224 24.4286 34.2857ZM35.5714 24.8571H41.5714V26.5714H35.5714V24.8571ZM35.5714 21.4286H44.1429V23.1429H35.5714V21.4286ZM35.5714 18H44.1429V19.7143H35.5714V18ZM28.7143 25.7143H23.5714C22.8894 25.7143 22.2354 25.9852 21.7532 26.4674C21.2709 26.9497 21 27.6037 21 28.2857V30H22.7143V28.2857C22.7143 28.0584 22.8046 27.8404 22.9653 27.6796C23.1261 27.5189 23.3441 27.4286 23.5714 27.4286H28.7143C28.9416 27.4286 29.1596 27.5189 29.3204 27.6796C29.4811 27.8404 29.5714 28.0584 29.5714 28.2857V30H31.2857V28.2857C31.2857 27.6037 31.0148 26.9497 30.5326 26.4674C30.0503 25.9852 29.3963 25.7143 28.7143 25.7143ZM26.1429 24.8571C26.821 24.8571 27.4838 24.6561 28.0477 24.2793C28.6115 23.9026 29.0509 23.3671 29.3104 22.7406C29.5699 22.1141 29.6378 21.4248 29.5056 20.7597C29.3733 20.0946 29.0467 19.4837 28.5672 19.0042C28.0877 18.5247 27.4768 18.1982 26.8117 18.0659C26.1467 17.9336 25.4573 18.0015 24.8308 18.261C24.2043 18.5205 23.6688 18.9599 23.2921 19.5238C22.9154 20.0876 22.7143 20.7505 22.7143 21.4286C22.7143 22.3379 23.0755 23.21 23.7185 23.8529C24.3615 24.4959 25.2335 24.8571 26.1429 24.8571ZM26.1429 19.7143C26.4819 19.7143 26.8134 19.8148 27.0953 20.0032C27.3772 20.1916 27.5969 20.4593 27.7267 20.7725C27.8564 21.0858 27.8903 21.4305 27.8242 21.763C27.7581 22.0956 27.5948 22.401 27.355 22.6408C27.1153 22.8805 26.8098 23.0438 26.4773 23.1099C26.1448 23.1761 25.8001 23.1421 25.4868 23.0124C25.1736 22.8826 24.9058 22.6629 24.7175 22.381C24.5291 22.0991 24.4286 21.7676 24.4286 21.4286C24.4286 20.9739 24.6092 20.5379 24.9307 20.2164C25.2522 19.8949 25.6882 19.7143 26.1429 19.7143Z" fill="#FFD60A"/>
</svg>
