<svg width="63" height="57" viewBox="0 0 63 57" fill="none" xmlns="http://www.w3.org/2000/svg">
<rect width="63" height="57" rx="7" fill="#003DB5"/>
<path d="M37.8117 15H26.1883C24.7718 15 24.0641 15 23.4921 15.1956C22.9528 15.3833 22.4649 15.6906 22.0662 16.0935C21.6675 16.4964 21.3687 16.9841 21.1931 17.5187C21 18.0971 21 18.8123 21 20.2439V37.0483C21 38.0779 22.2039 38.6251 22.9653 37.9411C23.179 37.7473 23.4591 37.6397 23.75 37.6397C24.0409 37.6397 24.321 37.7473 24.5347 37.9411L25.125 38.4715C25.4993 38.8113 25.9903 39 26.5 39C27.0097 39 27.5007 38.8113 27.875 38.4715C28.2493 38.1317 28.7403 37.943 29.25 37.943C29.7597 37.943 30.2507 38.1317 30.625 38.4715C30.9993 38.8113 31.4903 39 32 39C32.5097 39 33.0007 38.8113 33.375 38.4715C33.7493 38.1317 34.2403 37.943 34.75 37.943C35.2597 37.943 35.7507 38.1317 36.125 38.4715C36.4993 38.8113 36.9903 39 37.5 39C38.0097 39 38.5007 38.8113 38.875 38.4715L39.4653 37.9411C39.679 37.7473 39.9591 37.6397 40.25 37.6397C40.5409 37.6397 40.821 37.7473 41.0347 37.9411C41.7961 38.6251 43 38.0779 43 37.0483V20.2439C43 18.8123 43 18.0959 42.8069 17.5199C42.6315 16.985 42.3329 16.497 41.9341 16.0939C41.5354 15.6908 41.0473 15.3834 40.5079 15.1956C39.9359 15 39.2282 15 37.8117 15Z" stroke="#FFD60A" stroke-width="1.5"/>
<path d="M30.1667 25.7998H38.1111M25.8889 25.7998H26.5M25.8889 21.5999H26.5M25.8889 29.9997H26.5M30.1667 21.5999H38.1111M30.1667 29.9997H38.1111" stroke="#FFD60A" stroke-width="1.5" stroke-linecap="round"/>
</svg>
