<svg width="79" height="85" viewBox="0 0 79 85" fill="none" xmlns="http://www.w3.org/2000/svg">
<rect width="79" height="84.5122" rx="7" fill="#003DB5"/>
<path d="M53.9207 32.6188L40.127 23.7228L26.3334 32.6188V50.4108L40.127 59.3069L53.9207 50.4108V32.6188ZM40.127 27.7972L49.1849 33.6329L44.5716 36.6042C43.4528 35.252 41.8742 34.398 40.127 34.398C38.3798 34.398 36.8012 35.252 35.6824 36.6042L31.0692 33.6329L40.127 27.7972ZM38.5944 54.2539L29.3986 48.3292V36.6398L34.1958 39.7356C34.0578 40.2872 33.9965 40.8921 33.9965 41.5148C33.9965 44.8241 35.9429 47.6175 38.5944 48.4003V54.2539ZM37.0618 41.5148C37.0618 39.5577 38.4411 37.9564 40.127 37.9564C41.8129 37.9564 43.1923 39.5577 43.1923 41.5148C43.1923 43.4719 41.8129 45.0732 40.127 45.0732C38.4411 45.0732 37.0618 43.4719 37.0618 41.5148ZM41.6597 54.2539V48.4181C44.3111 47.6353 46.2575 44.8419 46.2575 41.5326C46.2575 40.9099 46.1962 40.305 46.0583 39.7356L50.8554 36.6398V48.3292L41.6597 54.2539Z" fill="#FFD60A"/>
</svg>
