<svg width="79" height="77" viewBox="0 0 79 77" fill="none" xmlns="http://www.w3.org/2000/svg">
<rect width="79" height="77" rx="7" fill="#003DB5"/>
<path d="M47.4147 20.2632H32.8394C31.0631 20.2632 30.1757 20.2632 29.4584 20.5274C28.7822 20.781 28.1703 21.1961 27.6703 21.7404C27.1704 22.2846 26.7957 22.9435 26.5755 23.6657C26.3334 24.447 26.3334 25.4132 26.3334 27.347V50.0478C26.3334 51.4386 27.843 52.1778 28.7978 51.2538C29.0657 50.992 29.4171 50.8466 29.7818 50.8466C30.1465 50.8466 30.4979 50.992 30.7657 51.2538L31.506 51.9703C31.9753 52.4293 32.591 52.6842 33.2302 52.6842C33.8694 52.6842 34.4851 52.4293 34.9544 51.9703C35.4237 51.5113 36.0394 51.2563 36.6786 51.2563C37.3178 51.2563 37.9335 51.5113 38.4028 51.9703C38.8721 52.4293 39.4878 52.6842 40.127 52.6842C40.7662 52.6842 41.3819 52.4293 41.8512 51.9703C42.3205 51.5113 42.9362 51.2563 43.5754 51.2563C44.2146 51.2563 44.8303 51.5113 45.2996 51.9703C45.7689 52.4293 46.3846 52.6842 47.0238 52.6842C47.6631 52.6842 48.2788 52.4293 48.7481 51.9703L49.4883 51.2538C49.7562 50.992 50.1075 50.8466 50.4723 50.8466C50.837 50.8466 51.1883 50.992 51.4562 51.2538C52.411 52.1778 53.9207 51.4386 53.9207 50.0478V27.347C53.9207 25.4132 53.9207 24.4454 53.6785 23.6673C53.4586 22.9447 53.0841 22.2855 52.5841 21.7409C52.0841 21.1964 51.4721 20.7811 50.7956 20.5274C50.0784 20.2632 49.191 20.2632 47.4147 20.2632Z" stroke="#FFD60A" stroke-width="1.5"/>
<path d="M37.8281 34.8524H47.7901M32.4639 34.8524H33.2302M32.4639 29.1788H33.2302M32.4639 40.526H33.2302M37.8281 29.1788H47.7901M37.8281 40.526H47.7901" stroke="#FFD60A" stroke-width="1.5" stroke-linecap="round"/>
</svg>
