<svg width="79" height="85" viewBox="0 0 79 85" fill="none" xmlns="http://www.w3.org/2000/svg">
<rect width="79" height="84.5122" rx="7" fill="#003DB5"/>
<path d="M47.0239 51.1521V54.4881H33.387C32.2646 54.4881 31.1881 53.9609 30.3944 53.0225C29.6008 52.0841 29.1549 50.8113 29.1549 49.4841C29.1549 48.157 29.6008 46.8842 30.3944 45.9458C31.1881 45.0073 32.2646 44.4801 33.387 44.4801H33.8573V42.2561H33.387C31.7657 42.2561 30.2108 43.0176 29.0644 44.3731C27.918 45.7287 27.2739 47.5671 27.2739 49.4841C27.2739 51.4011 27.918 53.2396 29.0644 54.5951C30.2108 55.9506 31.7657 56.7121 33.387 56.7121H47.0239V60.0481H54.5477V51.1521H47.0239ZM52.6668 57.8241H48.9049V53.3761H52.6668V57.8241Z" fill="#FFD60A"/>
<path d="M45.1428 50.0401H43.2618V46.7041H37.619V50.0401H35.738V46.7041C35.7385 46.1144 35.9369 45.5491 36.2895 45.1321C36.6421 44.7152 37.1203 44.4807 37.619 44.4801H43.2618C43.7606 44.4807 44.2387 44.7152 44.5913 45.1321C44.944 45.5491 45.1423 46.1144 45.1428 46.7041V50.0401ZM40.4404 43.3681C39.8824 43.3681 39.3369 43.1724 38.8729 42.8058C38.4089 42.4393 38.0473 41.9183 37.8338 41.3087C37.6202 40.6991 37.5643 40.0284 37.6732 39.3812C37.7821 38.7341 38.0508 38.1397 38.4454 37.6731C38.84 37.2066 39.3427 36.8889 39.89 36.7601C40.4373 36.6314 41.0046 36.6975 41.5201 36.95C42.0357 37.2025 42.4763 37.6301 42.7864 38.1787C43.0964 38.7273 43.2618 39.3723 43.2618 40.0321C43.2611 40.9165 42.9636 41.7646 42.4346 42.39C41.9057 43.0154 41.1885 43.3672 40.4404 43.3681ZM40.4404 38.9201C40.2544 38.9201 40.0726 38.9853 39.9179 39.1075C39.7633 39.2296 39.6427 39.4033 39.5715 39.6065C39.5003 39.8097 39.4817 40.0333 39.518 40.249C39.5543 40.4647 39.6439 40.6628 39.7754 40.8184C39.9069 40.9739 40.0745 41.0798 40.2569 41.1227C40.4394 41.1656 40.6285 41.1436 40.8003 41.0594C40.9722 40.9752 41.1191 40.8327 41.2224 40.6499C41.3257 40.467 41.3809 40.252 41.3809 40.0321C41.3806 39.7372 41.2815 39.4546 41.1052 39.2461C40.9288 39.0376 40.6898 38.9203 40.4404 38.9201Z" fill="#FFD60A"/>
<path d="M47.494 30.0241H33.8571V26.6881H26.3333V35.5841H33.8571V32.2481H47.494C48.6164 32.2481 49.6929 32.7753 50.4865 33.7138C51.2802 34.6522 51.7261 35.925 51.7261 37.2521C51.7261 38.5793 51.2802 39.8521 50.4865 40.7905C49.6929 41.7289 48.6164 42.2561 47.494 42.2561H47.0237V44.4802H47.494C49.1153 44.4802 50.6701 43.7186 51.8166 42.3631C52.963 41.0076 53.6071 39.1691 53.6071 37.2521C53.6071 35.3351 52.963 33.4967 51.8166 32.1412C50.6701 30.7856 49.1153 30.0241 47.494 30.0241ZM31.9761 33.3601H28.2142V28.9121H31.9761V33.3601Z" fill="#FFD60A"/>
</svg>
